<svg width="1200" height="675" viewBox="0 0 1200 675" fill="none" xmlns="http://www.w3.org/2000/svg">
  <rect width="1200" height="675" fill="#FFF9FB"/>
  <path d="M0 560C180 500 390 480 620 550C770 594 920 606 1200 540V675H0V560Z" fill="#F8DDEA"/>
  <path d="M220 675C260 520 360 380 520 250" stroke="#6E4A39" stroke-width="20" stroke-linecap="round"/>
  <path d="M515 255C590 195 665 166 740 155" stroke="#6E4A39" stroke-width="13" stroke-linecap="round"/>
  <circle cx="600" cy="190" r="30" fill="#F6A0C6"/><circle cx="630" cy="164" r="30" fill="#FBD6EA"/><circle cx="660" cy="190" r="30" fill="#F6A0C6"/><circle cx="630" cy="218" r="30" fill="#FBD6EA"/><circle cx="630" cy="190" r="11" fill="#F6D567"/>
  <circle cx="740" cy="156" r="27" fill="#F6A0C6"/><circle cx="769" cy="131" r="27" fill="#FBD6EA"/><circle cx="798" cy="156" r="27" fill="#F6A0C6"/><circle cx="769" cy="181" r="27" fill="#FBD6EA"/><circle cx="769" cy="156" r="10" fill="#F6D567"/>
</svg>
